<?xml version="1.0" standalone="no"?>
<!DOCTYPE svg PUBLIC "-//W3C//DTD SVG 20010904//EN"
 "http://www.w3.org/TR/2001/REC-SVG-20010904/DTD/svg10.dtd">
<svg version="1.0" xmlns="http://www.w3.org/2000/svg"
 width="337.000000pt" height="149.000000pt" viewBox="0 0 337.000000 149.000000"
 preserveAspectRatio="xMidYMid meet">

<g transform="translate(0.000000,149.000000) scale(0.100000,-0.100000)"
fill="#000000" stroke="none">
<path d="M795 1395 c-32 -31 -32 -75 -1 -111 33 -39 89 -39 122 0 49 56 13
136 -61 136 -25 0 -44 -8 -60 -25z"/>
<path d="M760 835 c0 -304 3 -381 14 -403 29 -55 96 -102 147 -102 18 0 19 10
19 275 l0 275 75 0 75 0 0 -285 c0 -234 3 -292 15 -322 26 -61 62 -91 128
-107 l27 -6 0 360 0 360 160 0 160 0 -1 33 c0 17 -3 26 -6 19 -9 -24 -60 -43
-87 -32 -72 27 -53 130 24 130 17 0 39 -9 50 -20 l20 -20 0 30 0 30 -314 0
-314 0 -7 28 c-15 72 -86 131 -157 132 l-28 0 0 -375z"/>
<path d="M1520 797 c-30 -16 -51 -37 -67 -67 -23 -42 -23 -49 -23 -353 l0
-309 31 6 c52 10 96 44 118 90 20 40 21 59 21 349 0 348 5 329 -80 284z"/>
<path d="M1670 510 c0 -200 4 -310 10 -310 6 0 10 110 10 310 0 200 -4 310
-10 310 -6 0 -10 -110 -10 -310z"/>
<path d="M1763 715 c0 -38 2 -53 4 -32 2 20 2 52 0 70 -2 17 -4 1 -4 -38z"/>
<path d="M1903 763 c-4 -10 -11 -21 -17 -25 -7 -5 -7 -8 2 -8 7 0 13 -16 14
-42 l1 -43 4 40 c3 22 10 43 16 47 9 6 9 8 0 8 -7 0 -13 6 -13 14 0 8 6 17 13
19 9 4 9 6 -1 6 -7 1 -16 -7 -19 -16z"/>
<path d="M2361 758 c-1 -9 -7 -19 -13 -21 -10 -4 -10 -6 0 -6 7 -1 12 -16 12
-41 0 -32 4 -40 18 -39 10 0 12 3 5 6 -7 2 -13 20 -13 39 0 20 5 34 13 34 8 0
9 3 1 8 -6 4 -14 14 -17 22 -4 12 -6 12 -6 -2z"/>
<path d="M1813 733 c-7 -2 -13 -9 -13 -15 0 -6 6 -6 15 2 8 7 22 10 30 6 9 -3
13 -2 10 4 -7 11 -22 12 -42 3z"/>
<path d="M1963 733 c-7 -2 -13 -9 -13 -14 0 -5 9 -4 19 3 15 9 23 9 35 -1 9
-8 16 -9 16 -3 0 17 -32 26 -57 15z"/>
<path d="M2063 733 c-8 -3 -12 -21 -11 -46 1 -41 1 -41 5 -7 2 19 11 41 20 48
17 12 9 15 -14 5z"/>
<path d="M2123 733 c-8 -3 -12 -21 -12 -46 l2 -42 6 40 c4 26 11 40 21 40 10
0 16 -13 19 -40 l5 -40 5 40 c5 31 10 40 26 40 16 0 21 -9 26 -40 l6 -40 2 36
c1 45 -21 69 -49 51 -12 -7 -21 -8 -25 -2 -7 11 -13 11 -32 3z"/>
<path d="M2262 728 c-7 -7 -12 -16 -12 -22 0 -5 6 -1 14 10 13 16 18 17 35 6
12 -7 21 -8 21 -3 0 8 -23 21 -39 21 -4 0 -12 -5 -19 -12z"/>
<path d="M2413 695 c0 -27 2 -38 4 -22 2 15 2 37 0 50 -2 12 -4 0 -4 -28z"/>
<path d="M2490 727 c14 -8 27 -12 30 -10 7 6 -23 23 -40 23 -8 0 -4 -6 10 -13z"/>
<path d="M2541 690 c2 -43 2 -43 8 -11 7 41 36 64 52 41 9 -13 10 -13 6 0 -2
9 -16 15 -35 15 -31 1 -32 0 -31 -45z"/>
<path d="M2445 710 c-10 -31 12 -62 42 -58 15 2 28 9 29 16 1 7 0 8 -3 2 -2
-5 -15 -10 -28 -10 -26 0 -40 26 -29 54 3 9 4 16 1 16 -3 0 -8 -9 -12 -20z"/>
<path d="M1862 680 c0 -19 2 -27 5 -17 2 9 2 25 0 35 -3 9 -5 1 -5 -18z"/>
<path d="M1941 697 c-2 -22 22 -47 44 -47 23 0 54 35 42 47 -3 2 -8 -5 -12
-16 -9 -29 -49 -28 -63 2 -6 12 -11 18 -11 14z"/>
<path d="M2250 671 c0 -10 19 -25 25 -20 1 2 -3 10 -11 17 -8 7 -14 8 -14 3z"/>
<path d="M2302 664 c-7 -8 -8 -14 -3 -14 10 0 25 19 20 25 -2 1 -10 -3 -17
-11z"/>
<path d="M1757 573 c19 -4 23 -12 26 -66 l3 -62 2 62 c2 55 4 62 25 66 12 2 0
4 -28 4 -27 0 -40 -2 -28 -4z"/>
<path d="M2323 515 c0 -38 2 -53 4 -32 2 20 2 52 0 70 -2 17 -4 1 -4 -38z"/>
<path d="M1863 533 c-7 -2 -13 -13 -13 -24 0 -15 7 -19 33 -19 41 0 49 7 36
31 -9 18 -31 23 -56 12z m51 -18 c4 -11 -2 -15 -24 -15 -29 0 -38 9 -23 23 12
12 41 7 47 -8z"/>
<path d="M1952 528 c-7 -7 -12 -21 -12 -33 0 -42 45 -60 71 -28 13 15 12 15
-7 3 -29 -18 -54 -6 -54 25 0 31 25 43 54 25 19 -12 20 -12 7 3 -16 20 -42 22
-59 5z"/>
<path d="M2053 533 c-7 -2 -13 -9 -13 -15 0 -6 6 -6 15 2 25 20 45 4 47 -37
l1 -38 4 33 c6 48 -16 71 -54 55z"/>
<path d="M2143 533 c-7 -2 -13 -9 -13 -15 0 -6 6 -6 15 2 25 20 45 4 47 -37
l1 -38 4 33 c6 48 -16 71 -54 55z"/>
<path d="M2225 529 c-4 -6 -4 -13 -1 -16 3 -4 6 -1 6 5 0 20 48 14 55 -7 13
-41 -24 -68 -53 -39 -8 8 -12 8 -12 1 0 -12 23 -23 46 -23 23 0 38 43 25 69
-12 22 -55 29 -66 10z"/>
<path d="M2360 526 c-28 -35 11 -93 48 -70 35 22 22 84 -18 84 -10 0 -23 -7
-30 -14z m55 -31 c0 -25 -4 -30 -25 -30 -16 0 -26 6 -28 18 -6 30 6 49 30 45
18 -2 23 -9 23 -33z"/>
<path d="M2456 532 c-2 -4 7 -8 22 -7 33 0 43 -32 16 -53 -17 -13 -17 -14 -1
-9 11 4 17 1 17 -9 0 -21 -29 -29 -54 -14 -19 12 -20 12 -7 -3 33 -41 71 -12
71 53 0 43 -1 46 -29 48 -16 1 -32 -1 -35 -6z"/>
<path d="M2586 525 c-9 -26 -7 -32 5 -12 6 10 9 21 6 23 -2 3 -7 -2 -11 -11z"/>
<path d="M2441 499 c-1 -9 7 -23 17 -30 15 -12 16 -12 6 1 -6 8 -14 22 -17 30
-5 13 -6 12 -6 -1z"/>
<path d="M2546 495 c4 -11 7 -31 7 -45 l-1 -25 14 25 c16 29 18 43 5 35 -6 -3
-15 3 -21 12 -10 16 -11 16 -4 -2z"/>
<path d="M1860 467 c15 -20 52 -19 56 1 1 7 0 8 -3 2 -7 -14 -36 -13 -53 3
-12 10 -12 9 0 -6z"/>
<path d="M1763 315 c0 -38 2 -53 4 -32 2 20 2 52 0 70 -2 17 -4 1 -4 -38z"/>
<path d="M1984 321 c1 -48 5 -65 16 -68 11 -3 11 -2 3 4 -6 5 -14 35 -16 68
l-4 60 1 -64z"/>
<path d="M2079 360 c-11 -26 5 -103 21 -107 10 -3 11 -2 3 4 -6 5 -13 33 -15
63 -2 30 -6 48 -9 40z"/>
<path d="M2229 360 c-11 -26 5 -103 21 -107 10 -3 11 -2 3 4 -6 5 -13 33 -15
63 -2 30 -6 48 -9 40z"/>
<path d="M1798 322 c3 -10 7 -11 12 -2 16 26 45 6 51 -35 l6 -40 2 36 c0 20
-5 42 -13 48 -19 16 -65 10 -58 -7z"/>
<path d="M1890 320 c0 -11 4 -20 8 -20 4 0 8 9 8 20 0 11 -4 20 -8 20 -4 0 -8
-9 -8 -20z"/>
<path d="M2033 295 c0 -27 2 -38 4 -22 2 15 2 37 0 50 -2 12 -4 0 -4 -28z"/>
<path d="M2134 298 c1 -33 5 -43 19 -44 11 -1 12 0 3 3 -9 2 -17 21 -19 44
l-4 39 1 -42z"/>
<path d="M2187 303 c-2 -21 0 -42 4 -48 5 -5 9 11 9 38 0 57 -6 61 -13 10z"/>
<path d="M2283 323 c-3 -10 -8 -21 -10 -25 -2 -5 1 -8 6 -8 6 0 11 9 11 19 0
11 6 22 13 24 9 4 9 6 -1 6 -7 1 -15 -7 -19 -16z"/>
<path d="M2326 333 c6 -4 14 -15 17 -23 5 -11 6 -9 4 4 -1 11 -9 21 -17 23
-10 3 -11 2 -4 -4z"/>
<path d="M1926 293 c6 -4 14 -15 17 -23 5 -11 6 -9 4 4 -1 11 -9 21 -17 23
-10 3 -11 2 -4 -4z"/>
<path d="M1892 264 c9 -9 21 -15 27 -13 6 2 -2 10 -17 17 -25 11 -25 11 -10
-4z"/>
<path d="M2291 265 c18 -18 59 -13 59 7 0 6 -6 5 -16 -3 -13 -10 -19 -10 -37
0 -21 12 -21 12 -6 -4z"/>
</g>
</svg>
