<?xml version="1.0" encoding="UTF-8" standalone="no" ?>
<!DOCTYPE svg PUBLIC "-//W3C//DTD SVG 1.1//EN" "http://www.w3.org/Graphics/SVG/1.1/DTD/svg11.dtd">
<svg xmlns="http://www.w3.org/2000/svg" xmlns:xlink="http://www.w3.org/1999/xlink" version="1.1" width="1080"
    height="1080" viewBox="0 0 1080 1280" xml:space="preserve">
    <desc>Created with Fabric.js 5.2.4</desc>
    <defs>
    </defs>
    <g transform="matrix(1 0 0 1 540 540)" id="0a746a3d-6094-45d9-9a27-8ca210e2a9aa">
        <rect
            style="stroke: none; stroke-width: 1; stroke-dasharray: none; stroke-linecap: butt; stroke-dashoffset: 0; stroke-linejoin: miter; stroke-miterlimit: 4; fill: rgb(255,255,255); fill-opacity: 0; fill-rule: nonzero; opacity: 1;"
            vector-effect="non-scaling-stroke" x="-540" y="-540" rx="0" ry="0" width="1080" height="1080" />
    </g>
    <g transform="matrix(1 0 0 1 540 540)" id="727777d0-a093-4d39-b524-3f221e342cf3">
    </g>
    <g transform="matrix(18 0 0 18 540 582.03)">
        <g style="">
            <g transform="matrix(1.33 0 0 1.33 -31.18 -0.05)">
                <path
                    style="stroke: none; stroke-width: 1; stroke-dasharray: none; stroke-linecap: butt; stroke-dashoffset: 0; stroke-linejoin: miter; stroke-miterlimit: 4; fill: rgb(26,237,230); fill-rule: nonzero; opacity: 1;"
                    vector-effect="non-scaling-stroke" transform=" translate(-6.47, 10.77)"
                    d="M 10 3.375 C 8.476562 3.375 7.304688 2.988281 6.484375 2.21875 C 5.660156 1.457031 5.25 0.316406 5.25 -1.203125 L 5.25 -6.9375 C 5.25 -7.925781 5.039062 -8.617188 4.625 -9.015625 C 4.21875 -9.421875 3.53125 -9.625 2.5625 -9.625 L 1.28125 -9.625 L 1.28125 -11.90625 L 2.5625 -11.90625 C 3.53125 -11.90625 4.21875 -12.109375 4.625 -12.515625 C 5.039062 -12.929688 5.25 -13.632812 5.25 -14.625 L 5.25 -20.34375 C 5.25 -21.875 5.660156 -23.019531 6.484375 -23.78125 C 7.304688 -24.539062 8.476562 -24.921875 10 -24.921875 L 11.65625 -24.921875 L 11.65625 -22.828125 L 10.328125 -22.828125 C 9.453125 -22.828125 8.800781 -22.625 8.375 -22.21875 C 7.945312 -21.820312 7.734375 -21.195312 7.734375 -20.34375 L 7.734375 -14.8125 C 7.734375 -13.726562 7.523438 -12.882812 7.109375 -12.28125 C 6.703125 -11.6875 6.09375 -11.242188 5.28125 -10.953125 L 5.28125 -10.609375 C 6.09375 -10.304688 6.703125 -9.851562 7.109375 -9.25 C 7.523438 -8.65625 7.734375 -7.816406 7.734375 -6.734375 L 7.734375 -1.203125 C 7.734375 -0.359375 7.945312 0.265625 8.375 0.671875 C 8.800781 1.078125 9.453125 1.28125 10.328125 1.28125 L 11.65625 1.28125 L 11.65625 3.375 Z M 10 3.375"
                    stroke-linecap="round" />
            </g>
            <g transform="matrix(1.33 0 0 1.33 31.16 1.02)">
                <path
                    style="stroke: none; stroke-width: 1; stroke-dasharray: none; stroke-linecap: butt; stroke-dashoffset: 0; stroke-linejoin: miter; stroke-miterlimit: 4; fill: rgb(26,237,230); fill-rule: nonzero; opacity: 1;"
                    vector-effect="non-scaling-stroke" transform=" translate(-6.34, 10.78)"
                    d="M 1.15625 3.375 L 1.15625 1.28125 L 2.46875 1.28125 C 3.351562 1.28125 4.003906 1.078125 4.421875 0.671875 C 4.847656 0.265625 5.0625 -0.359375 5.0625 -1.203125 L 5.0625 -6.734375 C 5.0625 -7.828125 5.269531 -8.671875 5.6875 -9.265625 C 6.101562 -9.859375 6.71875 -10.304688 7.53125 -10.609375 L 7.53125 -10.953125 C 6.71875 -11.253906 6.101562 -11.703125 5.6875 -12.296875 C 5.269531 -12.890625 5.0625 -13.734375 5.0625 -14.828125 L 5.0625 -20.359375 C 5.0625 -21.203125 4.847656 -21.828125 4.421875 -22.234375 C 4.003906 -22.640625 3.351562 -22.84375 2.46875 -22.84375 L 1.15625 -22.84375 L 1.15625 -24.9375 L 2.8125 -24.9375 C 4.320312 -24.9375 5.488281 -24.550781 6.3125 -23.78125 C 7.144531 -23.019531 7.5625 -21.878906 7.5625 -20.359375 L 7.5625 -14.625 C 7.5625 -13.632812 7.769531 -12.9375 8.1875 -12.53125 C 8.601562 -12.125 9.289062 -11.921875 10.25 -11.921875 L 11.53125 -11.921875 L 11.53125 -9.625 L 10.25 -9.625 C 9.289062 -9.625 8.601562 -9.421875 8.1875 -9.015625 C 7.769531 -8.617188 7.5625 -7.925781 7.5625 -6.9375 L 7.5625 -1.203125 C 7.5625 0.316406 7.144531 1.457031 6.3125 2.21875 C 5.488281 2.988281 4.320312 3.375 2.8125 3.375 Z M 1.15625 3.375"
                    stroke-linecap="round" />
            </g>
        </g>
    </g>
    <g transform="matrix(0 0 0 0 0 0)">
        <g style="">
        </g>
    </g>
    <g transform="matrix(1 0 0 0.96 540 594.5)" style="" id="7722d7e1-6aff-467c-948f-aaf7b7f5d9c4">
        <rect opacity="0" fill="rgb(0,0,0)" x="-616.3" y="-113" width="1232.61" height="226"></rect>
        <text xml:space="preserve" font-family="Poppins" font-size="200" font-style="normal" font-weight="900"
            style="stroke: none; stroke-width: 1; stroke-dasharray: none; stroke-linecap: butt; stroke-dashoffset: 0; stroke-linejoin: miter; stroke-miterlimit: 4; fill: rgb(255,255,255); fill-rule: nonzero; opacity: 1; white-space: pre;">
            <tspan x="-441.4" y="62.83">Z</tspan>
            <tspan x="-309" y="62.83">a</tspan>
            <tspan x="-180.2" y="62.83">m</tspan>
            <tspan x="16.8" y="62.83">z</tspan>
            <tspan x="124.6" y="62.83">a</tspan>
            <tspan x="253.4" y="62.83">m</tspan>
        </text>
    </g>
</svg>