<svg xmlns="http://www.w3.org/2000/svg" xmlns:xlink="http://www.w3.org/1999/xlink" width="80" zoomAndPan="magnify" viewBox="0 0 60 60" height="80" preserveAspectRatio="xMidYMid meet" version="1.0"><defs><g/></defs><g fill="#ffffff" fill-opacity="1"><g transform="translate(14.887396, 29.016357)"><g><path d="M 3.40625 0.140625 C 2.5625 0.140625 1.929688 -0.0664062 1.515625 -0.484375 C 1.097656 -0.910156 0.890625 -1.515625 0.890625 -2.296875 L 0.890625 -6.578125 L 1.75 -6.578125 L 1.75 -2.296875 C 1.75 -1.734375 1.882812 -1.304688 2.15625 -1.015625 C 2.4375 -0.734375 2.851562 -0.59375 3.40625 -0.59375 C 3.945312 -0.59375 4.359375 -0.734375 4.640625 -1.015625 C 4.921875 -1.304688 5.0625 -1.734375 5.0625 -2.296875 L 5.0625 -6.578125 L 5.90625 -6.578125 L 5.90625 -2.296875 C 5.90625 -1.515625 5.695312 -0.910156 5.28125 -0.484375 C 4.863281 -0.0664062 4.238281 0.140625 3.40625 0.140625 Z M 3.40625 0.140625 "/></g></g></g><g fill="#ffffff" fill-opacity="1"><g transform="translate(21.686993, 29.016357)"><g><path d="M 7.0625 -6.578125 L 7.0625 0 L 6.21875 0 L 6.21875 -5.296875 L 4.203125 -2.5 L 3.765625 -2.5 L 1.765625 -5.296875 L 1.765625 0 L 0.921875 0 L 0.921875 -6.578125 L 1.84375 -6.578125 L 3.984375 -3.578125 L 6.125 -6.578125 Z M 7.0625 -6.578125 "/></g></g></g><g fill="#ffffff" fill-opacity="1"><g transform="translate(29.674787, 29.016357)"><g><path d="M 4.546875 -1.921875 L 1.796875 -1.921875 L 1.09375 0 L 0.234375 0 L 2.703125 -6.65625 L 3.640625 -6.65625 L 6.125 0 L 5.25 0 Z M 4.265625 -2.671875 L 3.171875 -5.609375 L 2.09375 -2.671875 Z M 4.265625 -2.671875 "/></g></g></g><g fill="#ffffff" fill-opacity="1"><g transform="translate(36.023388, 29.016357)"><g><path d="M 0.921875 -6.578125 L 1.765625 -6.578125 L 1.765625 0 L 0.921875 0 Z M 0.921875 -6.578125 "/></g></g></g><g fill="#ffffff" fill-opacity="1"><g transform="translate(38.720677, 29.016357)"><g><path d="M 3.046875 -2.78125 L 1.765625 -2.78125 L 1.765625 0 L 0.921875 0 L 0.921875 -6.578125 L 3.21875 -6.578125 C 4.65625 -6.578125 5.375 -5.941406 5.375 -4.671875 C 5.375 -4.160156 5.253906 -3.75 5.015625 -3.4375 C 4.773438 -3.132812 4.414062 -2.9375 3.9375 -2.84375 L 5.703125 0 L 4.734375 0 Z M 1.765625 -3.515625 L 3.21875 -3.515625 C 4.082031 -3.515625 4.515625 -3.898438 4.515625 -4.671875 C 4.515625 -5.066406 4.40625 -5.359375 4.1875 -5.546875 C 3.976562 -5.742188 3.65625 -5.84375 3.21875 -5.84375 L 1.765625 -5.84375 Z M 1.765625 -3.515625 "/></g></g></g><g fill="#ffffff" fill-opacity="1"><g transform="translate(44.847281, 29.016357)"><g/></g></g><g fill="#ffffff" fill-opacity="1"><g transform="translate(14.616368, 40.580218)"><g><path d="M 4.546875 -1.921875 L 1.796875 -1.921875 L 1.09375 0 L 0.234375 0 L 2.703125 -6.65625 L 3.640625 -6.65625 L 6.125 0 L 5.25 0 Z M 4.265625 -2.671875 L 3.171875 -5.609375 L 2.09375 -2.671875 Z M 4.265625 -2.671875 "/></g></g></g><g fill="#ffffff" fill-opacity="1"><g transform="translate(20.964969, 40.580218)"><g><path d="M 5.59375 -0.75 L 5.59375 0 L 0.6875 0 L 0.6875 -0.734375 L 4.28125 -5.8125 L 0.8125 -5.8125 L 0.8125 -6.578125 L 5.3125 -6.578125 L 5.3125 -5.84375 L 1.71875 -0.75 Z M 5.59375 -0.75 "/></g></g></g><g fill="#ffffff" fill-opacity="1"><g transform="translate(27.19215, 40.580218)"><g><path d="M 7.0625 -6.578125 L 7.0625 0 L 6.21875 0 L 6.21875 -5.296875 L 4.203125 -2.5 L 3.765625 -2.5 L 1.765625 -5.296875 L 1.765625 0 L 0.921875 0 L 0.921875 -6.578125 L 1.84375 -6.578125 L 3.984375 -3.578125 L 6.125 -6.578125 Z M 7.0625 -6.578125 "/></g></g></g><g fill="#ffffff" fill-opacity="1"><g transform="translate(35.179943, 40.580218)"><g><path d="M 4.546875 -1.921875 L 1.796875 -1.921875 L 1.09375 0 L 0.234375 0 L 2.703125 -6.65625 L 3.640625 -6.65625 L 6.125 0 L 5.25 0 Z M 4.265625 -2.671875 L 3.171875 -5.609375 L 2.09375 -2.671875 Z M 4.265625 -2.671875 "/></g></g></g><g fill="#ffffff" fill-opacity="1"><g transform="translate(41.528545, 40.580218)"><g><path d="M 5.15625 -5.8125 L 3.171875 -5.8125 L 3.171875 0 L 2.328125 0 L 2.328125 -5.8125 L 0.34375 -5.8125 L 0.34375 -6.578125 L 5.15625 -6.578125 Z M 5.15625 -5.8125 "/></g></g></g><g fill="#1aede6" fill-opacity="1"><g transform="translate(0.155801, 40.767748)"><g><path d="M 10 3.375 C 8.476562 3.375 7.304688 2.988281 6.484375 2.21875 C 5.660156 1.457031 5.25 0.316406 5.25 -1.203125 L 5.25 -6.9375 C 5.25 -7.925781 5.039062 -8.617188 4.625 -9.015625 C 4.21875 -9.421875 3.53125 -9.625 2.5625 -9.625 L 1.28125 -9.625 L 1.28125 -11.90625 L 2.5625 -11.90625 C 3.53125 -11.90625 4.21875 -12.109375 4.625 -12.515625 C 5.039062 -12.929688 5.25 -13.632812 5.25 -14.625 L 5.25 -20.34375 C 5.25 -21.875 5.660156 -23.019531 6.484375 -23.78125 C 7.304688 -24.539062 8.476562 -24.921875 10 -24.921875 L 11.65625 -24.921875 L 11.65625 -22.828125 L 10.328125 -22.828125 C 9.453125 -22.828125 8.800781 -22.625 8.375 -22.21875 C 7.945312 -21.820312 7.734375 -21.195312 7.734375 -20.34375 L 7.734375 -14.8125 C 7.734375 -13.726562 7.523438 -12.882812 7.109375 -12.28125 C 6.703125 -11.6875 6.09375 -11.242188 5.28125 -10.953125 L 5.28125 -10.609375 C 6.09375 -10.304688 6.703125 -9.851562 7.109375 -9.25 C 7.523438 -8.65625 7.734375 -7.816406 7.734375 -6.734375 L 7.734375 -1.203125 C 7.734375 -0.359375 7.945312 0.265625 8.375 0.671875 C 8.800781 1.078125 9.453125 1.28125 10.328125 1.28125 L 11.65625 1.28125 L 11.65625 3.375 Z M 10 3.375 "/></g></g></g><g fill="#1aede6" fill-opacity="1"><g transform="translate(47.03809, 41.581009)"><g><path d="M 1.15625 3.375 L 1.15625 1.28125 L 2.46875 1.28125 C 3.351562 1.28125 4.003906 1.078125 4.421875 0.671875 C 4.847656 0.265625 5.0625 -0.359375 5.0625 -1.203125 L 5.0625 -6.734375 C 5.0625 -7.828125 5.269531 -8.671875 5.6875 -9.265625 C 6.101562 -9.859375 6.71875 -10.304688 7.53125 -10.609375 L 7.53125 -10.953125 C 6.71875 -11.253906 6.101562 -11.703125 5.6875 -12.296875 C 5.269531 -12.890625 5.0625 -13.734375 5.0625 -14.828125 L 5.0625 -20.359375 C 5.0625 -21.203125 4.847656 -21.828125 4.421875 -22.234375 C 4.003906 -22.640625 3.351562 -22.84375 2.46875 -22.84375 L 1.15625 -22.84375 L 1.15625 -24.9375 L 2.8125 -24.9375 C 4.320312 -24.9375 5.488281 -24.550781 6.3125 -23.78125 C 7.144531 -23.019531 7.5625 -21.878906 7.5625 -20.359375 L 7.5625 -14.625 C 7.5625 -13.632812 7.769531 -12.9375 8.1875 -12.53125 C 8.601562 -12.125 9.289062 -11.921875 10.25 -11.921875 L 11.53125 -11.921875 L 11.53125 -9.625 L 10.25 -9.625 C 9.289062 -9.625 8.601562 -9.421875 8.1875 -9.015625 C 7.769531 -8.617188 7.5625 -7.925781 7.5625 -6.9375 L 7.5625 -1.203125 C 7.5625 0.316406 7.144531 1.457031 6.3125 2.21875 C 5.488281 2.988281 4.320312 3.375 2.8125 3.375 Z M 1.15625 3.375 "/></g></g></g></svg>