<?xml version="1.0" standalone="no"?>
<!DOCTYPE svg PUBLIC "-//W3C//DTD SVG 20010904//EN"
 "http://www.w3.org/TR/2001/REC-SVG-20010904/DTD/svg10.dtd">
<svg version="1.0" xmlns="http://www.w3.org/2000/svg"
 width="1080.000000pt" height="1080.000000pt" viewBox="0 0 1080.000000 1080.000000"
 preserveAspectRatio="xMidYMid meet">

<g transform="translate(0.000000,1080.000000) scale(0.100000,-0.100000)"
fill="#000000" stroke="none">
<path d="M2545 7347 c-101 -34 -171 -86 -221 -167 l-36 -58 -69 0 c-59 0 -81
-5 -135 -32 -93 -45 -135 -102 -170 -227 -2 -8 -27 -12 -77 -12 -81 1 -151
-21 -221 -68 -38 -25 -47 -27 -126 -24 -213 7 -455 -69 -631 -200 -500 -371
-557 -1097 -120 -1538 42 -43 101 -94 131 -114 30 -20 75 -62 101 -94 39 -50
84 -87 154 -128 16 -10 16 -13 -4 -51 -30 -57 -52 -169 -45 -229 21 -181 114
-297 289 -357 l70 -24 6 -52 c38 -308 410 -440 639 -226 27 25 61 70 75 98 13
28 57 166 96 306 39 140 100 359 135 485 108 386 140 499 219 779 41 149 79
274 83 278 13 13 126 12 166 -2 20 -6 36 -17 36 -24 0 -7 -70 -262 -155 -567
-356 -1267 -346 -1231 -346 -1295 0 -119 64 -240 163 -307 77 -52 142 -70 235
-65 110 5 186 41 261 123 l57 62 39 -13 c151 -53 310 -13 420 107 76 81 112
164 119 274 2 29 2 29 72 31 38 2 88 7 110 13 22 5 99 12 170 15 144 5 235 24
361 77 152 63 332 208 430 344 95 133 163 313 184 489 28 234 -43 501 -185
701 -84 118 -241 252 -373 319 -29 15 -55 35 -58 44 -27 92 -110 194 -190 232
-38 19 -45 26 -39 44 50 159 -14 326 -148 386 l-39 18 -2 79 c-4 171 -114 311
-280 358 -159 46 -345 -31 -429 -177 -14 -25 -68 -197 -127 -408 -150 -541
-138 -503 -163 -495 -12 4 -56 16 -97 27 -41 11 -76 22 -78 23 -2 2 47 182
109 401 102 361 113 407 113 479 -1 111 -28 178 -104 256 -78 80 -149 112
-255 116 -48 2 -96 -3 -120 -10z m196 -67 c88 -24 177 -113 205 -208 28 -92
22 -122 -128 -646 -28 -98 -37 -115 -77 -157 -77 -79 -177 -97 -273 -48 -44
22 -62 24 -76 6 -17 -20 13 -55 67 -79 70 -30 161 -28 235 5 45 21 57 23 52
11 -3 -9 -9 -26 -12 -39 -4 -17 -15 -26 -37 -30 -18 -4 -66 -17 -107 -30 -41
-13 -91 -27 -111 -30 -34 -6 -37 -5 -43 22 -13 48 -81 187 -126 252 -93 138
-235 264 -380 336 -81 41 -202 85 -233 85 -37 0 -9 25 49 43 106 33 218 8 301
-67 44 -39 64 -44 82 -22 9 11 9 20 2 34 -13 24 -73 73 -119 96 -32 16 -33 20
-27 54 10 54 29 85 80 130 48 43 111 65 165 60 l34 -3 2 -81 c1 -68 6 -92 31
-146 38 -81 89 -140 117 -136 33 5 31 41 -4 81 -77 88 -99 227 -51 332 66 148
218 218 382 175z m992 -229 c58 -28 120 -89 148 -148 26 -54 36 -160 20 -218
-26 -96 -109 -182 -208 -216 -58 -19 -75 -42 -51 -66 17 -16 21 -16 72 0 92
29 193 117 226 197 14 34 20 36 58 16 90 -47 141 -173 110 -274 l-13 -43 -75
-3 c-113 -5 -165 -35 -128 -73 13 -12 23 -13 54 -4 132 37 285 -28 353 -149
l23 -42 -23 7 c-90 29 -140 37 -265 42 -150 6 -243 -6 -369 -49 -91 -31 -222
-103 -296 -163 l-67 -53 -28 30 c-30 31 -152 132 -193 158 l-23 15 17 60 c16
53 19 58 29 40 27 -49 114 -123 164 -139 71 -24 132 -24 149 0 12 17 11 21 -8
37 -12 9 -37 17 -55 17 -45 0 -101 24 -138 58 -40 38 -76 118 -76 172 0 46
150 602 177 653 35 68 112 132 193 158 47 16 173 4 223 -20z m-2101 -435 c181
-35 322 -111 458 -246 130 -130 203 -259 247 -436 25 -105 23 -305 -6 -414
-88 -332 -338 -574 -679 -657 -101 -24 -284 -22 -397 6 -233 56 -439 208 -557
410 -83 141 -116 253 -125 416 -13 249 72 476 246 658 137 144 313 238 501
270 60 10 244 6 312 -7z m2548 -681 c193 -38 379 -150 505 -304 132 -162 205
-366 205 -571 0 -431 -313 -805 -736 -880 -101 -18 -308 -8 -402 19 -345 100
-600 403 -643 764 -47 402 204 804 586 940 152 54 320 65 485 32z m-1657 -562
c-46 -164 -89 -319 -95 -345 -6 -27 -14 -48 -18 -48 -3 0 -14 15 -22 34 -9 19
-37 51 -61 71 l-45 38 44 68 c51 78 92 171 123 276 23 79 68 145 120 180 19
13 35 23 36 23 1 0 -36 -134 -82 -297z m486 168 c28 -66 28 -121 -3 -236 -19
-73 -27 -128 -29 -206 l-2 -106 -56 -6 c-31 -3 -78 -14 -104 -26 -27 -12 -49
-20 -51 -18 -3 3 42 173 131 490 25 89 48 168 51 176 7 22 39 -12 63 -68z
m-725 -511 c50 -44 79 -111 79 -179 -1 -40 -37 -184 -127 -504 -70 -247 -134
-463 -142 -479 -27 -52 -101 -115 -162 -138 -46 -18 -72 -21 -132 -18 -124 7
-215 69 -265 179 -24 54 -27 71 -23 142 7 153 68 228 241 296 51 20 25 78 -30
65 -105 -25 -220 -127 -262 -233 -13 -34 -25 -61 -26 -61 -22 0 -120 40 -151
61 -96 65 -138 152 -138 279 1 80 15 138 46 183 18 24 25 27 81 27 79 0 138
16 144 39 4 15 20 19 95 25 94 7 202 27 252 46 38 14 42 8 20 -29 -15 -25 -15
-32 -5 -45 24 -28 47 -18 74 33 15 27 27 55 27 64 0 8 35 35 78 60 86 50 223
155 250 193 22 31 35 30 76 -6z m692 -118 c6 -4 14 -28 18 -55 10 -65 48 -175
92 -262 33 -66 35 -76 25 -106 -16 -47 -14 -114 5 -130 25 -21 48 1 54 52 l5
43 16 -25 c28 -42 135 -146 201 -194 39 -30 62 -54 63 -68 2 -25 69 -87 120
-111 45 -22 52 -50 31 -133 -49 -201 -228 -311 -421 -259 -34 9 -49 18 -46 27
34 135 1 281 -85 374 -34 38 -59 42 -77 14 -8 -13 -4 -24 17 -49 15 -18 39
-56 54 -84 23 -44 27 -63 27 -136 0 -73 -4 -93 -28 -142 -30 -61 -74 -105
-140 -140 -35 -19 -58 -23 -137 -23 -82 0 -102 3 -144 25 -63 32 -130 108
-151 169 -32 97 -25 134 109 614 128 461 149 516 207 558 53 38 156 61 185 41z
m-1816 -153 c14 -5 54 -16 90 -23 60 -13 62 -14 24 -15 -48 -1 -132 22 -159
45 -22 17 -23 18 45 -7z"/>
<path d="M1195 5619 c-22 -5 -51 -11 -64 -15 -50 -11 -1 -24 134 -33 168 -12
205 -22 255 -67 65 -59 84 -21 24 46 -50 55 -122 80 -227 79 -45 -1 -100 -5
-122 -10z"/>
<path d="M3772 4995 c-26 -11 -33 -20 -30 -37 2 -17 8 -22 23 -19 102 18 183
-10 365 -129 58 -38 119 -72 135 -76 l30 -7 -44 51 c-69 83 -160 160 -229 194
-77 38 -194 49 -250 23z"/>
<path d="M2464 4689 c-51 -26 -73 -117 -54 -229 7 -39 15 -70 18 -70 16 2 132
174 138 205 13 70 -44 122 -102 94z"/>
</g>
</svg>
